<svg id="Layer_1" data-name="Layer 1" xmlns="http://www.w3.org/2000/svg" xmlns:xlink="http://www.w3.org/1999/xlink" viewBox="0 0 1024 1024"><defs><style>.cls-1,.cls-2,.cls-3,.cls-4,.cls-5,.cls-6,.cls-7,.cls-8{fill:none;stroke-miterlimit:10;}.cls-1,.cls-2{stroke:#000;}.cls-1,.cls-5{stroke-width:8px;}.cls-2,.cls-6{stroke-width:5px;}.cls-3,.cls-4{stroke:#0e0;}.cls-3,.cls-7,.cls-8{stroke-width:20px;}.cls-4{stroke-width:12px;}.cls-5,.cls-6{stroke:#fff;}.cls-7{stroke:red;}.cls-8{stroke:blue;}.cls-9{fill:url(#radial-gradient);}.cls-10{fill:url(#radial-gradient-2);}</style><radialGradient id="radial-gradient" cx="890.41" cy="207.76" r="45.42" gradientUnits="userSpaceOnUse"><stop offset="0.25" stop-color="#fff"/><stop offset="0.63" stop-color="#ff1b1b"/><stop offset="1" stop-color="red" stop-opacity="0"/></radialGradient><radialGradient id="radial-gradient-2" cx="730.7" cy="490.03" r="45.42" xlink:href="#radial-gradient"/></defs><title>icon</title><line class="cls-1" x1="572.42" y1="1024" x2="572.42" y2="-8.31"/><line class="cls-1" x1="-7.67" y1="660.73" x2="1024" y2="660.73"/><line class="cls-2" x1="572.42" y1="550.78" x2="539.42" y2="550.78"/><line class="cls-2" x1="572.42" y1="429.28" x2="539.42" y2="429.28"/><line class="cls-2" x1="572.42" y1="306.29" x2="539.42" y2="306.29"/><line class="cls-2" x1="572.42" y1="186.29" x2="539.42" y2="186.29"/><line class="cls-2" x1="572.42" y1="63.3" x2="539.42" y2="63.3"/><line class="cls-2" x1="572.42" y1="795.26" x2="539.42" y2="795.26"/><line class="cls-2" x1="572.42" y1="916.76" x2="539.42" y2="916.76"/><line class="cls-2" x1="933.9" y1="660.73" x2="933.9" y2="688.77"/><line class="cls-2" x1="812.4" y1="660.73" x2="812.4" y2="688.77"/><line class="cls-2" x1="692.41" y1="660.73" x2="692.41" y2="688.77"/><line class="cls-2" x1="449.42" y1="660.73" x2="449.42" y2="688.77"/><line class="cls-2" x1="327.93" y1="660.73" x2="327.93" y2="688.77"/><line class="cls-2" x1="204.93" y1="660.73" x2="204.93" y2="688.77"/><line class="cls-2" x1="83.44" y1="660.73" x2="83.44" y2="688.77"/><line class="cls-3" x1="-13.88" y1="213.64" x2="825.87" y2="213.64"/><line class="cls-3" x1="954.95" y1="213.64" x2="1034.17" y2="213.64"/><line class="cls-3" x1="894.08" y1="-10.43" x2="894.08" y2="146.76"/><line class="cls-3" x1="894.08" y1="274.91" x2="894.08" y2="1038.33"/><polyline class="cls-3" points="954.95 146.76 954.95 274.91 825.87 274.91"/><polyline class="cls-4" points="825.87 284.91 825.87 146.76 964.95 146.76"/><line class="cls-3" x1="-25.88" y1="492.83" x2="666.17" y2="492.83"/><line class="cls-3" x1="795.24" y1="492.83" x2="1034.17" y2="492.83"/><line class="cls-3" x1="734.38" y1="-10.43" x2="734.38" y2="425.96"/><line class="cls-3" x1="734.38" y1="554.1" x2="734.38" y2="1045.21"/><polyline class="cls-3" points="795.24 425.95 795.24 554.1 666.16 554.1"/><polyline class="cls-4" points="666.16 564.1 666.16 425.95 805.24 425.95"/><line class="cls-5" x1="580.09" y1="1024" x2="580.09"/><line class="cls-5" y1="669.04" x2="1024" y2="669.04"/><line class="cls-6" x1="580.09" y1="559.09" x2="547.09" y2="559.09"/><line class="cls-6" x1="580.09" y1="437.59" x2="547.09" y2="437.59"/><line class="cls-6" x1="580.09" y1="314.6" x2="547.09" y2="314.6"/><line class="cls-6" x1="580.09" y1="194.61" x2="547.09" y2="194.61"/><line class="cls-6" x1="580.09" y1="71.61" x2="547.09" y2="71.61"/><line class="cls-6" x1="580.09" y1="803.58" x2="547.09" y2="803.58"/><line class="cls-6" x1="580.09" y1="925.07" x2="547.09" y2="925.07"/><line class="cls-6" x1="941.57" y1="669.04" x2="941.57" y2="697.08"/><line class="cls-6" x1="820.07" y1="669.04" x2="820.07" y2="697.08"/><line class="cls-6" x1="700.08" y1="669.04" x2="700.08" y2="697.08"/><line class="cls-6" x1="457.09" y1="669.04" x2="457.09" y2="697.08"/><line class="cls-6" x1="335.6" y1="669.04" x2="335.6" y2="697.08"/><line class="cls-6" x1="212.61" y1="669.04" x2="212.61" y2="697.08"/><line class="cls-6" x1="91.11" y1="669.04" x2="91.11" y2="697.08"/><polyline class="cls-7" points="-25.88 635.58 119.61 512 415.1 826.08 1052.56 610.09"/><polyline class="cls-8" points="987.2 1045.21 430.09 752.58 73.11 892.82 -13.88 800.58"/><circle class="cls-9" cx="890.41" cy="207.76" r="45.42"/><circle class="cls-10" cx="730.7" cy="490.03" r="45.42"/></svg>